<svg width="24" height="24" viewBox="0 0 24 24" fill="none" xmlns="http://www.w3.org/2000/svg">
<path d="M12.0004 16.5C14.4856 16.5 16.5004 14.4853 16.5004 12C16.5004 9.51472 14.4856 7.5 12.0004 7.5C9.51508 7.5 7.50037 9.51472 7.50037 12C7.50037 14.4853 9.51508 16.5 12.0004 16.5Z" stroke="#8C94A3" stroke-width="1.5" stroke-linecap="round" stroke-linejoin="round"/>
<path d="M11.5197 4.13757L9.7507 2.8112C9.65579 2.7398 9.54526 2.69198 9.42824 2.67167C9.31122 2.65137 9.19104 2.65917 9.07762 2.69442C8.52974 2.86599 7.99819 3.08591 7.48926 3.3516C7.3839 3.40686 7.2932 3.48638 7.22463 3.58361C7.15607 3.68083 7.11161 3.79297 7.09493 3.91076L6.7822 6.09991C6.663 6.20557 6.5463 6.31547 6.4321 6.42961C6.31794 6.54377 6.20801 6.6605 6.10232 6.7798L6.10228 6.77984L3.91351 7.09284C3.79591 7.10947 3.68394 7.1538 3.58684 7.2222C3.48973 7.29059 3.41027 7.38108 3.355 7.48621C3.08891 7.99493 2.86856 8.5263 2.69655 9.07404C2.66113 9.18762 2.65322 9.30799 2.67349 9.42522C2.69375 9.54245 2.74161 9.65318 2.8131 9.74827L4.13993 11.5174C4.13036 11.6764 4.12555 11.8366 4.1255 11.998C4.1255 12.1595 4.13032 12.3198 4.13994 12.4789L4.13993 12.4789L2.81357 14.2479C2.74217 14.3428 2.69434 14.4534 2.67404 14.5704C2.65374 14.6874 2.66153 14.8076 2.69679 14.921C2.86836 15.4689 3.08828 16.0004 3.35396 16.5094C3.40923 16.6147 3.48875 16.7054 3.58597 16.774C3.6832 16.8426 3.79533 16.887 3.91313 16.9037L6.10227 17.2164C6.20794 17.3356 6.31783 17.4523 6.43197 17.5665C6.54613 17.6807 6.66287 17.7906 6.78217 17.8963L6.7822 17.8964L7.0952 20.0851C7.11183 20.2027 7.15617 20.3147 7.22456 20.4118C7.29295 20.5089 7.38344 20.5884 7.48857 20.6436C7.9973 20.9097 8.52867 21.1301 9.07641 21.3021C9.18998 21.3375 9.31035 21.3454 9.42758 21.3252C9.54481 21.3049 9.65554 21.257 9.75063 21.1855L11.5197 19.8587C11.6787 19.8683 11.839 19.8731 12.0004 19.8731C12.1619 19.8731 12.3221 19.8683 12.4812 19.8587L12.4813 19.8587L14.2503 21.1851C14.3452 21.2565 14.4557 21.3043 14.5728 21.3246C14.6898 21.3449 14.81 21.3371 14.9234 21.3019C15.4713 21.1303 16.0028 20.9104 16.5117 20.6447C16.6171 20.5894 16.7078 20.5099 16.7764 20.4127C16.8449 20.3154 16.8894 20.2033 16.9061 20.0855L17.2188 17.8964C17.338 17.7907 17.4547 17.6808 17.5689 17.5667C17.6831 17.4525 17.793 17.3358 17.8987 17.2165L17.8987 17.2164L20.0875 16.9034C20.2051 16.8868 20.3171 16.8425 20.4142 16.7741C20.5113 16.7057 20.5907 16.6152 20.646 16.5101C20.9121 16.0013 21.1324 15.47 21.3045 14.9222C21.3399 14.8087 21.3478 14.6883 21.3275 14.5711C21.3072 14.4538 21.2594 14.3431 21.1879 14.248L19.8611 12.4789C19.8706 12.3199 19.8755 12.1597 19.8755 11.9982C19.8755 11.8368 19.8707 11.6765 19.8611 11.5174L19.8611 11.5174L21.1874 9.74834C21.2588 9.65342 21.3067 9.5429 21.327 9.42588C21.3473 9.30885 21.3395 9.18868 21.3042 9.07526C21.1326 8.52738 20.9127 7.99583 20.647 7.48689C20.5918 7.38154 20.5123 7.29083 20.415 7.22227C20.3178 7.15371 20.2057 7.10925 20.0879 7.09256L17.8987 6.77984C17.7931 6.66064 17.6832 6.54394 17.569 6.42974C17.4549 6.31557 17.3381 6.20565 17.2188 6.09996L17.2188 6.09991L16.9058 3.91115C16.8892 3.79354 16.8448 3.68158 16.7764 3.58447C16.708 3.48736 16.6176 3.4079 16.5124 3.35263C16.0037 3.08654 15.4723 2.86619 14.9246 2.69418C14.811 2.65876 14.6906 2.65086 14.5734 2.67112C14.4562 2.69139 14.3455 2.73924 14.2504 2.81074L12.4813 4.13757C12.3223 4.12799 12.162 4.12318 12.0006 4.12314C11.8391 4.12314 11.6789 4.12795 11.5198 4.13757L11.5197 4.13757Z" stroke="#8C94A3" stroke-width="1.5" stroke-linecap="round" stroke-linejoin="round"/>
</svg>
