<svg width="47" height="46" viewBox="0 0 47 46" fill="none" xmlns="http://www.w3.org/2000/svg">
<rect width="46" height="46.0002" transform="translate(0.638672)" fill="#FF6636"/>
<path d="M32.6346 32.0002V31.9994H32.6391V25.3979C32.6391 22.1684 31.9439 19.6807 28.1684 19.6807C26.3534 19.6807 25.1354 20.6767 24.6381 21.6209H24.5856V19.9822H21.0059V31.9994H24.7334V26.0489C24.7334 24.4822 25.0304 22.9672 26.9706 22.9672C28.8824 22.9672 28.9109 24.7552 28.9109 26.1494V32.0002H32.6346Z" fill="white"/>
<path d="M14.9355 19.9829H18.6675V32.0002H14.9355V19.9829Z" fill="white"/>
<path d="M16.8002 14C15.6069 14 14.6387 14.9683 14.6387 16.1615C14.6387 17.3548 15.6069 18.3433 16.8002 18.3433C17.9934 18.3433 18.9617 17.3548 18.9617 16.1615C18.9609 14.9683 17.9927 14 16.8002 14V14Z" fill="white"/>
</svg>
