<svg width="60" height="60" viewBox="0 0 60 60" fill="none" xmlns="http://www.w3.org/2000/svg">
<rect width="60" height="60" fill="#EBEBFF"/>
<path opacity="0.2" d="M19.6786 36.1245C18.1877 33.6112 17.6655 30.64 18.2102 27.7689C18.7549 24.8979 20.329 22.3244 22.6369 20.5318C24.9447 18.7392 27.8276 17.8507 30.7441 18.0332C33.6607 18.2157 36.4103 19.4567 38.4767 21.523C40.5431 23.5894 41.784 26.339 41.9666 29.2555C42.1491 32.1721 41.2606 35.055 39.468 37.3629C37.6754 39.6707 35.1019 41.2448 32.2309 41.7895C29.3598 42.3342 26.3887 41.8121 23.8753 40.3212L23.8753 40.3211L19.7308 41.5052C19.5593 41.5542 19.3778 41.5565 19.2052 41.5117C19.0326 41.467 18.875 41.3769 18.7489 41.2508C18.6228 41.1247 18.5327 40.9672 18.488 40.7945C18.4433 40.6219 18.4455 40.4404 18.4945 40.269L19.6787 36.1244L19.6786 36.1245Z" fill="#564FFD"/>
<path d="M19.6786 36.1245C18.1877 33.6112 17.6655 30.64 18.2102 27.7689C18.7549 24.8979 20.329 22.3244 22.6369 20.5318C24.9447 18.7392 27.8276 17.8507 30.7441 18.0332C33.6607 18.2157 36.4103 19.4567 38.4767 21.523C40.5431 23.5894 41.784 26.339 41.9666 29.2555C42.1491 32.1721 41.2606 35.055 39.468 37.3629C37.6754 39.6707 35.1019 41.2448 32.2309 41.7895C29.3598 42.3342 26.3887 41.8121 23.8753 40.3212L23.8753 40.3211L19.7308 41.5052C19.5593 41.5542 19.3778 41.5565 19.2052 41.5117C19.0326 41.467 18.875 41.3769 18.7489 41.2508C18.6228 41.1247 18.5327 40.9672 18.488 40.7945C18.4433 40.6219 18.4455 40.4404 18.4945 40.269L19.6787 36.1244L19.6786 36.1245Z" stroke="#564FFD" stroke-width="2" stroke-linecap="round" stroke-linejoin="round"/>
<path d="M30 31.5C30.8284 31.5 31.5 30.8284 31.5 30C31.5 29.1716 30.8284 28.5 30 28.5C29.1716 28.5 28.5 29.1716 28.5 30C28.5 30.8284 29.1716 31.5 30 31.5Z" fill="#564FFD"/>
<path d="M24 31.5C24.8284 31.5 25.5 30.8284 25.5 30C25.5 29.1716 24.8284 28.5 24 28.5C23.1716 28.5 22.5 29.1716 22.5 30C22.5 30.8284 23.1716 31.5 24 31.5Z" fill="#564FFD"/>
<path d="M36 31.5C36.8284 31.5 37.5 30.8284 37.5 30C37.5 29.1716 36.8284 28.5 36 28.5C35.1716 28.5 34.5 29.1716 34.5 30C34.5 30.8284 35.1716 31.5 36 31.5Z" fill="#564FFD"/>
</svg>
