<svg width="60" height="60" viewBox="0 0 60 60" fill="none" xmlns="http://www.w3.org/2000/svg">
<rect width="60" height="60" fill="#FFF2E6"/>
<path opacity="0.2" d="M25 34C28.5899 34 31.5 31.0899 31.5 27.5C31.5 23.9101 28.5899 21 25 21C21.4101 21 18.5 23.9101 18.5 27.5C18.5 31.0899 21.4101 34 25 34Z" fill="#FD8E1F"/>
<path d="M25 34C28.5899 34 31.5 31.0899 31.5 27.5C31.5 23.9101 28.5899 21 25 21C21.4101 21 18.5 23.9101 18.5 27.5C18.5 31.0899 21.4101 34 25 34Z" stroke="#FD8E1F" stroke-width="2" stroke-miterlimit="10"/>
<path d="M33.4268 21.2417C34.3208 20.9898 35.2584 20.9324 36.1765 21.0734C37.0945 21.2144 37.9717 21.5505 38.749 22.059C39.5262 22.5676 40.1855 23.2368 40.6823 24.0216C41.1791 24.8063 41.502 25.6885 41.6292 26.6086C41.7564 27.5287 41.685 28.4653 41.4197 29.3555C41.1544 30.2456 40.7014 31.0686 40.0913 31.7689C39.4812 32.4693 38.7281 33.0307 37.8827 33.4155C37.0373 33.8003 36.1193 33.9994 35.1905 33.9995" stroke="#FD8E1F" stroke-width="2" stroke-linecap="round" stroke-linejoin="round"/>
<path d="M15.9995 38.6746C17.0147 37.2306 18.3624 36.052 19.9288 35.2384C21.4953 34.4248 23.2345 34.0001 24.9996 34C26.7648 33.9999 28.504 34.4246 30.0705 35.238C31.637 36.0515 32.9848 37.23 34.0001 38.6739" stroke="#FD8E1F" stroke-width="2" stroke-linecap="round" stroke-linejoin="round"/>
<path d="M35.1899 34C36.9552 33.9987 38.6949 34.4228 40.2615 35.2364C41.8281 36.05 43.1757 37.2291 44.19 38.6739" stroke="#FD8E1F" stroke-width="2" stroke-linecap="round" stroke-linejoin="round"/>
</svg>
