<svg width="60" height="60" viewBox="0 0 60 60" fill="none" xmlns="http://www.w3.org/2000/svg">
<rect width="60" height="60" fill="#F5F7FA"/>
<path opacity="0.2" d="M21 21V27.887C21 32.8496 24.9693 36.963 29.9318 36.9997C31.1194 37.0088 32.297 36.7826 33.3968 36.3344C34.4966 35.8861 35.4968 35.2246 36.3398 34.388C37.1828 33.5514 37.8518 32.5563 38.3084 31.4599C38.7649 30.3635 39 29.1876 39 28V21C39 20.7348 38.8946 20.4804 38.7071 20.2929C38.5196 20.1054 38.2652 20 38 20H22C21.7348 20 21.4804 20.1054 21.2929 20.2929C21.1054 20.4804 21 20.7348 21 21Z" fill="#1D2026"/>
<path d="M21 21V27.887C21 32.8496 24.9693 36.963 29.9318 36.9997C31.1194 37.0088 32.297 36.7826 33.3968 36.3344C34.4966 35.8861 35.4968 35.2246 36.3398 34.388C37.1828 33.5514 37.8518 32.5563 38.3084 31.4599C38.7649 30.3635 39 29.1876 39 28V21C39 20.7348 38.8946 20.4804 38.7071 20.2929C38.5196 20.1054 38.2652 20 38 20H22C21.7348 20 21.4804 20.1054 21.2929 20.2929C21.1054 20.4804 21 20.7348 21 21Z" stroke="#1D2026" stroke-width="2" stroke-linecap="round" stroke-linejoin="round"/>
<path d="M26 42H34" stroke="#1D2026" stroke-width="2" stroke-linecap="round" stroke-linejoin="round"/>
<path d="M30 37V42" stroke="#1D2026" stroke-width="2" stroke-linecap="round" stroke-linejoin="round"/>
<path d="M38.7764 30H39.9994C41.0603 30 42.0777 29.5786 42.8278 28.8284C43.578 28.0783 43.9994 27.0609 43.9994 26V24C43.9994 23.7348 43.8941 23.4804 43.7065 23.2929C43.519 23.1054 43.2646 23 42.9994 23H38.9994" stroke="#1D2026" stroke-width="2" stroke-linecap="round" stroke-linejoin="round"/>
<path d="M21.2458 30H19.9844C18.9235 30 17.9061 29.5786 17.1559 28.8284C16.4058 28.0783 15.9844 27.0609 15.9844 26V24C15.9844 23.7348 16.0897 23.4804 16.2773 23.2929C16.4648 23.1054 16.7192 23 16.9844 23H20.9844" stroke="#1D2026" stroke-width="2" stroke-linecap="round" stroke-linejoin="round"/>
</svg>
